<mxfile host="app.diagrams.net" agent="Mozilla/5.0 (Windows NT 10.0; Win64; x64) AppleWebKit/537.36 (KHTML, like Gecko) Chrome/118.0.0.0 Safari/537.36" version="28.1.0">
  <diagram name="第 1 页" id="NeXlB-DkaC1V6HmDpA3a">
    <mxGraphModel dx="2637" dy="881" grid="1" gridSize="10" guides="1" tooltips="1" connect="1" arrows="1" fold="1" page="1" pageScale="1" pageWidth="827" pageHeight="1169" math="0" shadow="0">
      <root>
        <mxCell id="0" />
        <mxCell id="1" parent="0" />
        <mxCell id="AN1FsqrcMt11nKGcJI2h-75" value="" style="group" parent="1" vertex="1" connectable="0">
          <mxGeometry x="-690" y="130" width="1220" height="560" as="geometry" />
        </mxCell>
        <mxCell id="AN1FsqrcMt11nKGcJI2h-43" value="" style="rounded=0;whiteSpace=wrap;html=1;fillColor=#EEFFFE;shadow=1;" parent="AN1FsqrcMt11nKGcJI2h-75" vertex="1">
          <mxGeometry x="680" y="100" width="360" height="460" as="geometry" />
        </mxCell>
        <mxCell id="AN1FsqrcMt11nKGcJI2h-74" style="edgeStyle=orthogonalEdgeStyle;rounded=0;orthogonalLoop=1;jettySize=auto;html=1;" parent="AN1FsqrcMt11nKGcJI2h-75" source="AN1FsqrcMt11nKGcJI2h-42" target="AN1FsqrcMt11nKGcJI2h-47" edge="1">
          <mxGeometry relative="1" as="geometry" />
        </mxCell>
        <mxCell id="AN1FsqrcMt11nKGcJI2h-42" value="" style="rounded=0;whiteSpace=wrap;html=1;fillColor=#E5FFF2;shadow=1;" parent="AN1FsqrcMt11nKGcJI2h-75" vertex="1">
          <mxGeometry x="250" y="100" width="350" height="460" as="geometry" />
        </mxCell>
        <mxCell id="AN1FsqrcMt11nKGcJI2h-39" value="" style="rounded=0;whiteSpace=wrap;html=1;fillColor=#F8FFF1;shadow=1;" parent="AN1FsqrcMt11nKGcJI2h-75" vertex="1">
          <mxGeometry y="441.25" width="170" height="117.5" as="geometry" />
        </mxCell>
        <mxCell id="AN1FsqrcMt11nKGcJI2h-45" style="edgeStyle=orthogonalEdgeStyle;rounded=0;orthogonalLoop=1;jettySize=auto;html=1;entryX=0.5;entryY=0;entryDx=0;entryDy=0;" parent="AN1FsqrcMt11nKGcJI2h-75" source="AN1FsqrcMt11nKGcJI2h-1" target="AN1FsqrcMt11nKGcJI2h-43" edge="1">
          <mxGeometry relative="1" as="geometry" />
        </mxCell>
        <mxCell id="AN1FsqrcMt11nKGcJI2h-1" value="ConfigClient&lt;br&gt;应用启动" style="rounded=1;whiteSpace=wrap;html=1;fillColor=#FFCCCC;shadow=1;" parent="AN1FsqrcMt11nKGcJI2h-75" vertex="1">
          <mxGeometry x="800" width="120" height="60" as="geometry" />
        </mxCell>
        <mxCell id="AN1FsqrcMt11nKGcJI2h-7" style="edgeStyle=orthogonalEdgeStyle;rounded=0;orthogonalLoop=1;jettySize=auto;html=1;entryX=0.5;entryY=0;entryDx=0;entryDy=0;" parent="AN1FsqrcMt11nKGcJI2h-75" source="AN1FsqrcMt11nKGcJI2h-2" target="AN1FsqrcMt11nKGcJI2h-6" edge="1">
          <mxGeometry relative="1" as="geometry" />
        </mxCell>
        <mxCell id="AN1FsqrcMt11nKGcJI2h-2" value="初始化BootstrapContext" style="rounded=1;whiteSpace=wrap;html=1;fillColor=#CCFFFF;shadow=1;" parent="AN1FsqrcMt11nKGcJI2h-75" vertex="1">
          <mxGeometry x="720" y="140" width="120" height="60" as="geometry" />
        </mxCell>
        <mxCell id="AN1FsqrcMt11nKGcJI2h-5" value="配置客户端ConfigClient" style="text;strokeColor=none;align=center;fillColor=none;html=1;verticalAlign=middle;whiteSpace=wrap;rounded=0;" parent="AN1FsqrcMt11nKGcJI2h-75" vertex="1">
          <mxGeometry x="820" y="110" width="130" height="20" as="geometry" />
        </mxCell>
        <mxCell id="AN1FsqrcMt11nKGcJI2h-9" style="edgeStyle=orthogonalEdgeStyle;rounded=0;orthogonalLoop=1;jettySize=auto;html=1;entryX=0.5;entryY=0;entryDx=0;entryDy=0;" parent="AN1FsqrcMt11nKGcJI2h-75" source="AN1FsqrcMt11nKGcJI2h-6" target="AN1FsqrcMt11nKGcJI2h-8" edge="1">
          <mxGeometry relative="1" as="geometry" />
        </mxCell>
        <mxCell id="AN1FsqrcMt11nKGcJI2h-6" value="加载bootstrap.properties&lt;br&gt;获取config.uri, appname等" style="rounded=1;whiteSpace=wrap;html=1;fillColor=#99FFFF;shadow=1;" parent="AN1FsqrcMt11nKGcJI2h-75" vertex="1">
          <mxGeometry x="705" y="240" width="150" height="70" as="geometry" />
        </mxCell>
        <mxCell id="AN1FsqrcMt11nKGcJI2h-12" style="edgeStyle=orthogonalEdgeStyle;rounded=0;orthogonalLoop=1;jettySize=auto;html=1;entryX=0.5;entryY=0;entryDx=0;entryDy=0;" parent="AN1FsqrcMt11nKGcJI2h-75" source="AN1FsqrcMt11nKGcJI2h-8" target="AN1FsqrcMt11nKGcJI2h-11" edge="1">
          <mxGeometry relative="1" as="geometry" />
        </mxCell>
        <mxCell id="AN1FsqrcMt11nKGcJI2h-72" style="edgeStyle=orthogonalEdgeStyle;rounded=0;orthogonalLoop=1;jettySize=auto;html=1;entryX=0.5;entryY=0;entryDx=0;entryDy=0;" parent="AN1FsqrcMt11nKGcJI2h-75" source="AN1FsqrcMt11nKGcJI2h-8" target="AN1FsqrcMt11nKGcJI2h-42" edge="1">
          <mxGeometry relative="1" as="geometry" />
        </mxCell>
        <mxCell id="AN1FsqrcMt11nKGcJI2h-8" value="向ConfigServer&lt;br&gt;发起远程HTTP请求" style="rounded=1;whiteSpace=wrap;html=1;fillColor=#66FFFF;shadow=1;" parent="AN1FsqrcMt11nKGcJI2h-75" vertex="1">
          <mxGeometry x="720" y="365" width="120" height="60" as="geometry" />
        </mxCell>
        <mxCell id="AN1FsqrcMt11nKGcJI2h-10" value="根据配置&lt;br&gt;组装请求" style="text;strokeColor=none;align=center;fillColor=none;html=1;verticalAlign=middle;whiteSpace=wrap;rounded=0;" parent="AN1FsqrcMt11nKGcJI2h-75" vertex="1">
          <mxGeometry x="784" y="320" width="50" height="30" as="geometry" />
        </mxCell>
        <mxCell id="AN1FsqrcMt11nKGcJI2h-63" style="edgeStyle=orthogonalEdgeStyle;rounded=0;orthogonalLoop=1;jettySize=auto;html=1;entryX=0;entryY=0.5;entryDx=0;entryDy=0;" parent="AN1FsqrcMt11nKGcJI2h-75" source="AN1FsqrcMt11nKGcJI2h-11" target="AN1FsqrcMt11nKGcJI2h-13" edge="1">
          <mxGeometry relative="1" as="geometry" />
        </mxCell>
        <mxCell id="AN1FsqrcMt11nKGcJI2h-11" value="接收JSON响应" style="rounded=1;whiteSpace=wrap;html=1;fillColor=#66FFFF;shadow=1;" parent="AN1FsqrcMt11nKGcJI2h-75" vertex="1">
          <mxGeometry x="720" y="470" width="120" height="60" as="geometry" />
        </mxCell>
        <mxCell id="AN1FsqrcMt11nKGcJI2h-64" style="edgeStyle=orthogonalEdgeStyle;rounded=0;orthogonalLoop=1;jettySize=auto;html=1;" parent="AN1FsqrcMt11nKGcJI2h-75" source="AN1FsqrcMt11nKGcJI2h-13" target="AN1FsqrcMt11nKGcJI2h-15" edge="1">
          <mxGeometry relative="1" as="geometry" />
        </mxCell>
        <mxCell id="AN1FsqrcMt11nKGcJI2h-13" value="将配置绑定到Environment" style="rounded=1;whiteSpace=wrap;html=1;fillColor=#CCFFFF;shadow=1;" parent="AN1FsqrcMt11nKGcJI2h-75" vertex="1">
          <mxGeometry x="900" y="470" width="120" height="60" as="geometry" />
        </mxCell>
        <mxCell id="AN1FsqrcMt11nKGcJI2h-65" style="edgeStyle=orthogonalEdgeStyle;rounded=0;orthogonalLoop=1;jettySize=auto;html=1;entryX=0.5;entryY=1;entryDx=0;entryDy=0;" parent="AN1FsqrcMt11nKGcJI2h-75" source="AN1FsqrcMt11nKGcJI2h-15" target="AN1FsqrcMt11nKGcJI2h-17" edge="1">
          <mxGeometry relative="1" as="geometry" />
        </mxCell>
        <mxCell id="AN1FsqrcMt11nKGcJI2h-15" value="关闭&lt;br&gt;BootstrapContext" style="rounded=1;whiteSpace=wrap;html=1;fillColor=#99FFFF;shadow=1;" parent="AN1FsqrcMt11nKGcJI2h-75" vertex="1">
          <mxGeometry x="900" y="365" width="120" height="60" as="geometry" />
        </mxCell>
        <mxCell id="AN1FsqrcMt11nKGcJI2h-66" style="edgeStyle=orthogonalEdgeStyle;rounded=0;orthogonalLoop=1;jettySize=auto;html=1;entryX=0.5;entryY=1;entryDx=0;entryDy=0;" parent="AN1FsqrcMt11nKGcJI2h-75" source="AN1FsqrcMt11nKGcJI2h-17" target="AN1FsqrcMt11nKGcJI2h-19" edge="1">
          <mxGeometry relative="1" as="geometry" />
        </mxCell>
        <mxCell id="AN1FsqrcMt11nKGcJI2h-17" value="创建并启动主ApplicationContext" style="rounded=1;whiteSpace=wrap;html=1;fillColor=#66FFFF;shadow=1;" parent="AN1FsqrcMt11nKGcJI2h-75" vertex="1">
          <mxGeometry x="900" y="245" width="120" height="60" as="geometry" />
        </mxCell>
        <mxCell id="AN1FsqrcMt11nKGcJI2h-19" value="应用正常运行&lt;br&gt;使用远程配置注入Bean" style="rounded=1;whiteSpace=wrap;html=1;fillColor=#99FFFF;shadow=1;" parent="AN1FsqrcMt11nKGcJI2h-75" vertex="1">
          <mxGeometry x="900" y="140" width="120" height="60" as="geometry" />
        </mxCell>
        <mxCell id="AN1FsqrcMt11nKGcJI2h-27" style="edgeStyle=orthogonalEdgeStyle;rounded=0;orthogonalLoop=1;jettySize=auto;html=1;entryX=0.5;entryY=0;entryDx=0;entryDy=0;" parent="AN1FsqrcMt11nKGcJI2h-75" source="AN1FsqrcMt11nKGcJI2h-21" target="AN1FsqrcMt11nKGcJI2h-24" edge="1">
          <mxGeometry relative="1" as="geometry" />
        </mxCell>
        <mxCell id="AN1FsqrcMt11nKGcJI2h-21" value="GET&lt;br&gt;&amp;nbsp;/app-name/profile" style="rounded=1;whiteSpace=wrap;html=1;fillColor=#CCFFE6;shadow=1;" parent="AN1FsqrcMt11nKGcJI2h-75" vertex="1">
          <mxGeometry x="280" y="140" width="120" height="60" as="geometry" />
        </mxCell>
        <mxCell id="AN1FsqrcMt11nKGcJI2h-23" value="配置服务端ConfigServer" style="text;strokeColor=none;align=center;fillColor=none;html=1;verticalAlign=middle;whiteSpace=wrap;rounded=0;" parent="AN1FsqrcMt11nKGcJI2h-75" vertex="1">
          <mxGeometry x="355" y="110" width="140" height="20" as="geometry" />
        </mxCell>
        <mxCell id="AN1FsqrcMt11nKGcJI2h-28" style="edgeStyle=orthogonalEdgeStyle;rounded=0;orthogonalLoop=1;jettySize=auto;html=1;entryX=0.5;entryY=0;entryDx=0;entryDy=0;" parent="AN1FsqrcMt11nKGcJI2h-75" source="AN1FsqrcMt11nKGcJI2h-24" target="AN1FsqrcMt11nKGcJI2h-25" edge="1">
          <mxGeometry relative="1" as="geometry" />
        </mxCell>
        <mxCell id="AN1FsqrcMt11nKGcJI2h-24" value="认证与授权&lt;br&gt;（可选）" style="rounded=1;whiteSpace=wrap;html=1;fillColor=#99FFCC;shadow=1;" parent="AN1FsqrcMt11nKGcJI2h-75" vertex="1">
          <mxGeometry x="280" y="245" width="120" height="60" as="geometry" />
        </mxCell>
        <mxCell id="AN1FsqrcMt11nKGcJI2h-29" style="edgeStyle=orthogonalEdgeStyle;rounded=0;orthogonalLoop=1;jettySize=auto;html=1;entryX=0.5;entryY=0;entryDx=0;entryDy=0;" parent="AN1FsqrcMt11nKGcJI2h-75" source="AN1FsqrcMt11nKGcJI2h-25" target="AN1FsqrcMt11nKGcJI2h-26" edge="1">
          <mxGeometry relative="1" as="geometry" />
        </mxCell>
        <mxCell id="AN1FsqrcMt11nKGcJI2h-25" value="根据&lt;br&gt;appname, profile, label&lt;br&gt;组装定位资源" style="rounded=1;whiteSpace=wrap;html=1;fillColor=#66FFB3;shadow=1;" parent="AN1FsqrcMt11nKGcJI2h-75" vertex="1">
          <mxGeometry x="270" y="365" width="140" height="60" as="geometry" />
        </mxCell>
        <mxCell id="AN1FsqrcMt11nKGcJI2h-69" style="edgeStyle=orthogonalEdgeStyle;rounded=0;orthogonalLoop=1;jettySize=auto;html=1;entryX=0;entryY=0.5;entryDx=0;entryDy=0;" parent="AN1FsqrcMt11nKGcJI2h-75" source="AN1FsqrcMt11nKGcJI2h-26" target="AN1FsqrcMt11nKGcJI2h-30" edge="1">
          <mxGeometry relative="1" as="geometry" />
        </mxCell>
        <mxCell id="AN1FsqrcMt11nKGcJI2h-73" style="edgeStyle=orthogonalEdgeStyle;rounded=0;orthogonalLoop=1;jettySize=auto;html=1;entryX=1;entryY=0.5;entryDx=0;entryDy=0;" parent="AN1FsqrcMt11nKGcJI2h-75" source="AN1FsqrcMt11nKGcJI2h-26" target="AN1FsqrcMt11nKGcJI2h-39" edge="1">
          <mxGeometry relative="1" as="geometry" />
        </mxCell>
        <mxCell id="AN1FsqrcMt11nKGcJI2h-26" value="从远程仓库拉取&lt;br&gt;对应配置文件" style="rounded=1;whiteSpace=wrap;html=1;fillColor=#99FFCC;shadow=1;" parent="AN1FsqrcMt11nKGcJI2h-75" vertex="1">
          <mxGeometry x="280" y="470" width="120" height="60" as="geometry" />
        </mxCell>
        <mxCell id="AN1FsqrcMt11nKGcJI2h-70" style="edgeStyle=orthogonalEdgeStyle;rounded=0;orthogonalLoop=1;jettySize=auto;html=1;" parent="AN1FsqrcMt11nKGcJI2h-75" source="AN1FsqrcMt11nKGcJI2h-30" target="AN1FsqrcMt11nKGcJI2h-32" edge="1">
          <mxGeometry relative="1" as="geometry" />
        </mxCell>
        <mxCell id="AN1FsqrcMt11nKGcJI2h-30" value="解析配置内容&lt;br&gt;（聚合、属性覆盖等）" style="rounded=1;whiteSpace=wrap;html=1;fillColor=#CCFFE6;shadow=1;" parent="AN1FsqrcMt11nKGcJI2h-75" vertex="1">
          <mxGeometry x="445" y="470" width="130" height="60" as="geometry" />
        </mxCell>
        <mxCell id="AN1FsqrcMt11nKGcJI2h-32" value="JSON格式&lt;br&gt;封装配置信息" style="rounded=1;whiteSpace=wrap;html=1;fillColor=#99FFCC;shadow=1;" parent="AN1FsqrcMt11nKGcJI2h-75" vertex="1">
          <mxGeometry x="450" y="365" width="120" height="60" as="geometry" />
        </mxCell>
        <mxCell id="AN1FsqrcMt11nKGcJI2h-36" value="Git/SVN/&lt;br&gt;本地文件等" style="rounded=1;whiteSpace=wrap;html=1;fillColor=#E6FFCC;shadow=1;" parent="AN1FsqrcMt11nKGcJI2h-75" vertex="1">
          <mxGeometry x="25" y="480" width="120" height="60" as="geometry" />
        </mxCell>
        <mxCell id="AN1FsqrcMt11nKGcJI2h-40" value="远程仓库RemoteRepository" style="text;strokeColor=none;align=center;fillColor=none;html=1;verticalAlign=middle;whiteSpace=wrap;rounded=0;" parent="AN1FsqrcMt11nKGcJI2h-75" vertex="1">
          <mxGeometry x="10" y="450" width="150" height="20" as="geometry" />
        </mxCell>
        <mxCell id="AN1FsqrcMt11nKGcJI2h-47" value="健康检查:&lt;br&gt;检查与远程仓库&lt;br&gt;连接状态" style="whiteSpace=wrap;html=1;shape=mxgraph.basic.cloud_rect;fillColor=#FFFFCC;shadow=1;" parent="AN1FsqrcMt11nKGcJI2h-75" vertex="1">
          <mxGeometry x="70" y="285" width="120" height="90" as="geometry" />
        </mxCell>
        <mxCell id="AN1FsqrcMt11nKGcJI2h-51" value="远程获取失败&lt;br&gt;则回退到本地配置" style="whiteSpace=wrap;html=1;shape=mxgraph.basic.cloud_rect;fillColor=#FFFFCC;shadow=1;" parent="AN1FsqrcMt11nKGcJI2h-75" vertex="1">
          <mxGeometry x="1100" y="290" width="120" height="90" as="geometry" />
        </mxCell>
        <mxCell id="AN1FsqrcMt11nKGcJI2h-59" value="&lt;b&gt;SpringCloudConfig 角色与组件交互&lt;/b&gt;" style="text;strokeColor=none;align=center;fillColor=none;html=1;verticalAlign=middle;whiteSpace=wrap;rounded=0;" parent="AN1FsqrcMt11nKGcJI2h-75" vertex="1">
          <mxGeometry width="200" height="20" as="geometry" />
        </mxCell>
        <mxCell id="AN1FsqrcMt11nKGcJI2h-67" style="edgeStyle=orthogonalEdgeStyle;rounded=0;orthogonalLoop=1;jettySize=auto;html=1;entryX=0.002;entryY=0.456;entryDx=0;entryDy=0;entryPerimeter=0;" parent="AN1FsqrcMt11nKGcJI2h-75" source="AN1FsqrcMt11nKGcJI2h-43" target="AN1FsqrcMt11nKGcJI2h-51" edge="1">
          <mxGeometry relative="1" as="geometry" />
        </mxCell>
        <mxCell id="AN1FsqrcMt11nKGcJI2h-71" style="edgeStyle=orthogonalEdgeStyle;rounded=0;orthogonalLoop=1;jettySize=auto;html=1;entryX=0.007;entryY=0.586;entryDx=0;entryDy=0;entryPerimeter=0;" parent="AN1FsqrcMt11nKGcJI2h-75" source="AN1FsqrcMt11nKGcJI2h-32" target="AN1FsqrcMt11nKGcJI2h-11" edge="1">
          <mxGeometry relative="1" as="geometry">
            <Array as="points">
              <mxPoint x="630" y="410" />
              <mxPoint x="630" y="505" />
            </Array>
          </mxGeometry>
        </mxCell>
        <mxCell id="wycGZuu_zJKLQWOENlEg-49" value="" style="group" vertex="1" connectable="0" parent="1">
          <mxGeometry x="-650" y="830" width="620" height="550" as="geometry" />
        </mxCell>
        <mxCell id="wycGZuu_zJKLQWOENlEg-47" value="" style="group" vertex="1" connectable="0" parent="wycGZuu_zJKLQWOENlEg-49">
          <mxGeometry y="20" width="620" height="530" as="geometry" />
        </mxCell>
        <mxCell id="wycGZuu_zJKLQWOENlEg-1" value="" style="shape=actor;whiteSpace=wrap;html=1;fillColor=#FFCCCC;shadow=1;" vertex="1" parent="wycGZuu_zJKLQWOENlEg-47">
          <mxGeometry x="210" width="40" height="60" as="geometry" />
        </mxCell>
        <mxCell id="wycGZuu_zJKLQWOENlEg-4" style="edgeStyle=orthogonalEdgeStyle;rounded=0;orthogonalLoop=1;jettySize=auto;html=1;entryX=0.5;entryY=0;entryDx=0;entryDy=0;" edge="1" parent="wycGZuu_zJKLQWOENlEg-47" source="wycGZuu_zJKLQWOENlEg-2" target="wycGZuu_zJKLQWOENlEg-3">
          <mxGeometry relative="1" as="geometry" />
        </mxCell>
        <mxCell id="wycGZuu_zJKLQWOENlEg-2" value="运维/开发者" style="text;strokeColor=none;align=center;fillColor=none;html=1;verticalAlign=middle;whiteSpace=wrap;rounded=0;" vertex="1" parent="wycGZuu_zJKLQWOENlEg-47">
          <mxGeometry x="195" y="60" width="70" height="20" as="geometry" />
        </mxCell>
        <mxCell id="wycGZuu_zJKLQWOENlEg-7" style="edgeStyle=orthogonalEdgeStyle;rounded=0;orthogonalLoop=1;jettySize=auto;html=1;entryX=0.5;entryY=0;entryDx=0;entryDy=0;" edge="1" parent="wycGZuu_zJKLQWOENlEg-47" source="wycGZuu_zJKLQWOENlEg-3" target="wycGZuu_zJKLQWOENlEg-6">
          <mxGeometry relative="1" as="geometry" />
        </mxCell>
        <mxCell id="wycGZuu_zJKLQWOENlEg-3" value="任意Client实例&lt;br&gt;触发者" style="rounded=1;whiteSpace=wrap;html=1;fillColor=#FFE6CC;shadow=1;" vertex="1" parent="wycGZuu_zJKLQWOENlEg-47">
          <mxGeometry x="170" y="130" width="120" height="60" as="geometry" />
        </mxCell>
        <mxCell id="wycGZuu_zJKLQWOENlEg-5" value="1、POST&lt;br&gt;/actuator/busrefresh" style="text;strokeColor=none;align=center;fillColor=none;html=1;verticalAlign=middle;whiteSpace=wrap;rounded=0;" vertex="1" parent="wycGZuu_zJKLQWOENlEg-47">
          <mxGeometry x="230" y="90" width="115" height="30" as="geometry" />
        </mxCell>
        <mxCell id="wycGZuu_zJKLQWOENlEg-14" style="edgeStyle=orthogonalEdgeStyle;rounded=0;orthogonalLoop=1;jettySize=auto;html=1;entryX=0.5;entryY=0;entryDx=0;entryDy=0;" edge="1" parent="wycGZuu_zJKLQWOENlEg-47" source="wycGZuu_zJKLQWOENlEg-6" target="wycGZuu_zJKLQWOENlEg-12">
          <mxGeometry relative="1" as="geometry" />
        </mxCell>
        <mxCell id="wycGZuu_zJKLQWOENlEg-15" style="edgeStyle=orthogonalEdgeStyle;rounded=0;orthogonalLoop=1;jettySize=auto;html=1;entryX=0.5;entryY=0;entryDx=0;entryDy=0;" edge="1" parent="wycGZuu_zJKLQWOENlEg-47" source="wycGZuu_zJKLQWOENlEg-6" target="wycGZuu_zJKLQWOENlEg-9">
          <mxGeometry relative="1" as="geometry" />
        </mxCell>
        <mxCell id="wycGZuu_zJKLQWOENlEg-16" style="edgeStyle=orthogonalEdgeStyle;rounded=0;orthogonalLoop=1;jettySize=auto;html=1;entryX=0.5;entryY=0;entryDx=0;entryDy=0;" edge="1" parent="wycGZuu_zJKLQWOENlEg-47" source="wycGZuu_zJKLQWOENlEg-6" target="wycGZuu_zJKLQWOENlEg-13">
          <mxGeometry relative="1" as="geometry" />
        </mxCell>
        <mxCell id="wycGZuu_zJKLQWOENlEg-6" value="消息中间件Broker&lt;br&gt;RabbitMQ/Kafka" style="rounded=1;whiteSpace=wrap;html=1;fillColor=#FFFFCC;shadow=1;" vertex="1" parent="wycGZuu_zJKLQWOENlEg-47">
          <mxGeometry x="170" y="265" width="120" height="60" as="geometry" />
        </mxCell>
        <mxCell id="wycGZuu_zJKLQWOENlEg-8" value="消息总线&lt;br&gt;SpringCloudBus" style="text;strokeColor=none;align=center;fillColor=none;html=1;verticalAlign=middle;whiteSpace=wrap;rounded=0;" vertex="1" parent="wycGZuu_zJKLQWOENlEg-47">
          <mxGeometry x="130" y="235" width="90" height="30" as="geometry" />
        </mxCell>
        <mxCell id="wycGZuu_zJKLQWOENlEg-23" style="edgeStyle=orthogonalEdgeStyle;rounded=0;orthogonalLoop=1;jettySize=auto;html=1;entryX=0;entryY=0.8;entryDx=0;entryDy=0;entryPerimeter=0;exitX=-0.001;exitY=0.206;exitDx=0;exitDy=0;exitPerimeter=0;" edge="1" parent="wycGZuu_zJKLQWOENlEg-47" source="wycGZuu_zJKLQWOENlEg-9" target="wycGZuu_zJKLQWOENlEg-9">
          <mxGeometry relative="1" as="geometry">
            <mxPoint x="60" y="410" as="targetPoint" />
            <Array as="points">
              <mxPoint x="60" y="380" />
              <mxPoint x="60" y="410" />
            </Array>
          </mxGeometry>
        </mxCell>
        <mxCell id="wycGZuu_zJKLQWOENlEg-33" style="edgeStyle=orthogonalEdgeStyle;rounded=0;orthogonalLoop=1;jettySize=auto;html=1;entryX=0.5;entryY=0;entryDx=0;entryDy=0;exitX=0.5;exitY=1;exitDx=0;exitDy=0;" edge="1" parent="wycGZuu_zJKLQWOENlEg-47" source="wycGZuu_zJKLQWOENlEg-9" target="wycGZuu_zJKLQWOENlEg-21">
          <mxGeometry relative="1" as="geometry">
            <Array as="points">
              <mxPoint x="110" y="450" />
              <mxPoint x="230" y="450" />
            </Array>
          </mxGeometry>
        </mxCell>
        <mxCell id="wycGZuu_zJKLQWOENlEg-9" value="Client实例A" style="rounded=1;whiteSpace=wrap;html=1;fillColor=#E6FFCC;shadow=1;" vertex="1" parent="wycGZuu_zJKLQWOENlEg-47">
          <mxGeometry x="70" y="370" width="80" height="50" as="geometry" />
        </mxCell>
        <mxCell id="wycGZuu_zJKLQWOENlEg-10" value="2、创建并发布&lt;br&gt;RefreshRemoteApplicationEvent" style="text;strokeColor=none;align=center;fillColor=none;html=1;verticalAlign=middle;whiteSpace=wrap;rounded=0;" vertex="1" parent="wycGZuu_zJKLQWOENlEg-47">
          <mxGeometry x="230" y="200" width="180" height="30" as="geometry" />
        </mxCell>
        <mxCell id="wycGZuu_zJKLQWOENlEg-34" style="edgeStyle=orthogonalEdgeStyle;rounded=0;orthogonalLoop=1;jettySize=auto;html=1;" edge="1" parent="wycGZuu_zJKLQWOENlEg-47" source="wycGZuu_zJKLQWOENlEg-12">
          <mxGeometry relative="1" as="geometry">
            <mxPoint x="230" y="470" as="targetPoint" />
          </mxGeometry>
        </mxCell>
        <mxCell id="wycGZuu_zJKLQWOENlEg-12" value="Client实例B" style="rounded=1;whiteSpace=wrap;html=1;fillColor=#E6FFCC;shadow=1;" vertex="1" parent="wycGZuu_zJKLQWOENlEg-47">
          <mxGeometry x="190" y="370" width="80" height="50" as="geometry" />
        </mxCell>
        <mxCell id="wycGZuu_zJKLQWOENlEg-35" style="edgeStyle=orthogonalEdgeStyle;rounded=0;orthogonalLoop=1;jettySize=auto;html=1;entryX=0.5;entryY=0;entryDx=0;entryDy=0;exitX=0.5;exitY=1;exitDx=0;exitDy=0;" edge="1" parent="wycGZuu_zJKLQWOENlEg-47" source="wycGZuu_zJKLQWOENlEg-13" target="wycGZuu_zJKLQWOENlEg-21">
          <mxGeometry relative="1" as="geometry">
            <Array as="points">
              <mxPoint x="350" y="450" />
              <mxPoint x="230" y="450" />
            </Array>
          </mxGeometry>
        </mxCell>
        <mxCell id="wycGZuu_zJKLQWOENlEg-13" value="Client实例C&lt;br&gt;非触发者" style="rounded=1;whiteSpace=wrap;html=1;fillColor=#E6FFCC;shadow=1;" vertex="1" parent="wycGZuu_zJKLQWOENlEg-47">
          <mxGeometry x="310" y="370" width="80" height="50" as="geometry" />
        </mxCell>
        <mxCell id="wycGZuu_zJKLQWOENlEg-19" value="3、广播事件" style="text;strokeColor=none;align=center;fillColor=none;html=1;verticalAlign=middle;whiteSpace=wrap;rounded=0;" vertex="1" parent="wycGZuu_zJKLQWOENlEg-47">
          <mxGeometry x="160" y="340" width="70" height="20" as="geometry" />
        </mxCell>
        <mxCell id="wycGZuu_zJKLQWOENlEg-41" style="edgeStyle=orthogonalEdgeStyle;rounded=0;orthogonalLoop=1;jettySize=auto;html=1;entryX=0;entryY=0.5;entryDx=0;entryDy=0;" edge="1" parent="wycGZuu_zJKLQWOENlEg-47" source="wycGZuu_zJKLQWOENlEg-21" target="wycGZuu_zJKLQWOENlEg-27">
          <mxGeometry relative="1" as="geometry" />
        </mxCell>
        <mxCell id="wycGZuu_zJKLQWOENlEg-21" value="接收刷新事件" style="rounded=1;whiteSpace=wrap;html=1;fillColor=#CCFFCC;shadow=1;" vertex="1" parent="wycGZuu_zJKLQWOENlEg-47">
          <mxGeometry x="175" y="470" width="110" height="60" as="geometry" />
        </mxCell>
        <mxCell id="wycGZuu_zJKLQWOENlEg-24" style="edgeStyle=orthogonalEdgeStyle;rounded=0;orthogonalLoop=1;jettySize=auto;html=1;entryX=0;entryY=0.8;entryDx=0;entryDy=0;entryPerimeter=0;exitX=-0.001;exitY=0.206;exitDx=0;exitDy=0;exitPerimeter=0;" edge="1" parent="wycGZuu_zJKLQWOENlEg-47">
          <mxGeometry relative="1" as="geometry">
            <mxPoint x="190" y="410" as="targetPoint" />
            <mxPoint x="190" y="380" as="sourcePoint" />
            <Array as="points">
              <mxPoint x="180" y="380" />
              <mxPoint x="180" y="410" />
            </Array>
          </mxGeometry>
        </mxCell>
        <mxCell id="wycGZuu_zJKLQWOENlEg-25" style="edgeStyle=orthogonalEdgeStyle;rounded=0;orthogonalLoop=1;jettySize=auto;html=1;entryX=0;entryY=0.8;entryDx=0;entryDy=0;entryPerimeter=0;exitX=-0.001;exitY=0.206;exitDx=0;exitDy=0;exitPerimeter=0;" edge="1" parent="wycGZuu_zJKLQWOENlEg-47">
          <mxGeometry relative="1" as="geometry">
            <mxPoint x="310" y="410" as="targetPoint" />
            <mxPoint x="310" y="380" as="sourcePoint" />
            <Array as="points">
              <mxPoint x="300" y="380" />
              <mxPoint x="300" y="410" />
            </Array>
          </mxGeometry>
        </mxCell>
        <mxCell id="wycGZuu_zJKLQWOENlEg-26" value="4、监听并消费事件" style="text;strokeColor=none;align=center;fillColor=none;html=1;verticalAlign=middle;whiteSpace=wrap;rounded=0;" vertex="1" parent="wycGZuu_zJKLQWOENlEg-47">
          <mxGeometry y="380" width="60" height="30" as="geometry" />
        </mxCell>
        <mxCell id="wycGZuu_zJKLQWOENlEg-42" style="edgeStyle=orthogonalEdgeStyle;rounded=0;orthogonalLoop=1;jettySize=auto;html=1;entryX=0.5;entryY=1;entryDx=0;entryDy=0;" edge="1" parent="wycGZuu_zJKLQWOENlEg-47" source="wycGZuu_zJKLQWOENlEg-27" target="wycGZuu_zJKLQWOENlEg-29">
          <mxGeometry relative="1" as="geometry" />
        </mxCell>
        <mxCell id="wycGZuu_zJKLQWOENlEg-27" value="销毁RefreshScope缓存（refreshScope.refreshAll）" style="rounded=1;whiteSpace=wrap;html=1;fillColor=#CCFFE6;shadow=1;" vertex="1" parent="wycGZuu_zJKLQWOENlEg-47">
          <mxGeometry x="410" y="470" width="160" height="60" as="geometry" />
        </mxCell>
        <mxCell id="wycGZuu_zJKLQWOENlEg-43" style="edgeStyle=orthogonalEdgeStyle;rounded=0;orthogonalLoop=1;jettySize=auto;html=1;entryX=0.5;entryY=1;entryDx=0;entryDy=0;" edge="1" parent="wycGZuu_zJKLQWOENlEg-47" source="wycGZuu_zJKLQWOENlEg-29" target="wycGZuu_zJKLQWOENlEg-31">
          <mxGeometry relative="1" as="geometry" />
        </mxCell>
        <mxCell id="wycGZuu_zJKLQWOENlEg-29" value="下次访问Bean时&lt;br&gt;延迟初始化" style="rounded=1;whiteSpace=wrap;html=1;fillColor=#CCFFFF;shadow=1;" vertex="1" parent="wycGZuu_zJKLQWOENlEg-47">
          <mxGeometry x="430" y="365" width="120" height="60" as="geometry" />
        </mxCell>
        <mxCell id="wycGZuu_zJKLQWOENlEg-44" style="edgeStyle=orthogonalEdgeStyle;rounded=0;orthogonalLoop=1;jettySize=auto;html=1;entryX=0.5;entryY=1;entryDx=0;entryDy=0;" edge="1" parent="wycGZuu_zJKLQWOENlEg-47" source="wycGZuu_zJKLQWOENlEg-31" target="wycGZuu_zJKLQWOENlEg-37">
          <mxGeometry relative="1" as="geometry" />
        </mxCell>
        <mxCell id="wycGZuu_zJKLQWOENlEg-31" value="重新创建Bean&lt;br&gt;并注入最新的Environment值" style="rounded=1;whiteSpace=wrap;html=1;fillColor=#CCE5FF;shadow=1;" vertex="1" parent="wycGZuu_zJKLQWOENlEg-47">
          <mxGeometry x="430" y="265" width="120" height="60" as="geometry" />
        </mxCell>
        <mxCell id="wycGZuu_zJKLQWOENlEg-36" value="各客户端实 例处理流程" style="text;strokeColor=none;align=center;fillColor=none;html=1;verticalAlign=middle;whiteSpace=wrap;rounded=0;" vertex="1" parent="wycGZuu_zJKLQWOENlEg-47">
          <mxGeometry x="157.5" y="430" width="145" height="10" as="geometry" />
        </mxCell>
        <mxCell id="wycGZuu_zJKLQWOENlEg-37" value="应用程序&lt;br&gt;使用新配置&lt;br&gt;无需重启" style="rounded=1;whiteSpace=wrap;html=1;fillColor=#CCCCFF;shadow=1;" vertex="1" parent="wycGZuu_zJKLQWOENlEg-47">
          <mxGeometry x="435" y="130" width="110" height="60" as="geometry" />
        </mxCell>
        <mxCell id="wycGZuu_zJKLQWOENlEg-39" value="5、Bean配置更新完成" style="text;strokeColor=none;align=center;fillColor=none;html=1;verticalAlign=middle;whiteSpace=wrap;rounded=0;" vertex="1" parent="wycGZuu_zJKLQWOENlEg-47">
          <mxGeometry x="490" y="219" width="130" height="16" as="geometry" />
        </mxCell>
        <mxCell id="wycGZuu_zJKLQWOENlEg-48" value="&lt;b&gt;SpringCloudConfig动态刷新&lt;/b&gt;" style="text;strokeColor=none;align=center;fillColor=none;html=1;verticalAlign=middle;whiteSpace=wrap;rounded=0;" vertex="1" parent="wycGZuu_zJKLQWOENlEg-49">
          <mxGeometry width="160" height="20" as="geometry" />
        </mxCell>
      </root>
    </mxGraphModel>
  </diagram>
</mxfile>
